{"title":"Hammer.of.the.Gods.2013.480p.WEBRip.x264-Fastbet99","uid":8742378,"size":838481288,"categoryP":"video","categoryS":"movies","magnet":"?xt=urn:btih:33ccfbff455ac4f8260694672bf2471b28430829&amp;dn=Hammer.of.the.Gods.2013.480p.WEBRip.x264-Fastbet99&amp;tr=udp%3A%2F%2Ftracker.openbittorrent.com%3A80&amp;tr=udp%3A%2F%2Fopen.demonii.com%3A1337&amp;tr=udp%3A%2F%2Ftracker.coppersurfer.tk%3A6969&amp;tr=udp%3A%2F%2Fexodus.desync.com%3A6969","seeders":1,"leechers":0,"uploader":"Fastbet99","files":-1,"time":1374822073,"description":"Hammer of the Gods (2013)\n\nIMDB Info\t\t\t\t : http://www.imdb.com/title/tt2193418/\n\nSource\t\t\t\t\t : 720p.WEB-DL-ELiTE (Thanks)\nComplete name                            : Hammer.of.the.Gods.2013.480p.WEBRip.x264-Fastbet99.mp4\nFormat                                   : MPEG-4\nFormat profile                           : Base Media\nCodec ID                                 : isom\nFile size                                : 800 MiB\nDuration                                 : 1h 38mn\nOverall bit rate mode                    : Variable\nOverall bit rate                         : 1 130 Kbps\n\nVideo\nID                                       : 1\nFormat                                   : AVC\nFormat/Info                              : Advanced Video Codec\nFormat profile                           : &lt;a class=&quot;__cf_email__&quot; href=&quot;/cdn-cgi/l/email-protection&quot; data-cfemail=&quot;e2aa8b858aa2aed6ccd3&quot;&gt;[email&amp;#160;protected]&lt;/a&gt;&lt;script cf-hash='f9e31' type=&quot;text/javascript&quot;&gt;\n/* &lt;![CDATA[ */!function(){try{var t=&quot;currentScript&quot;in document?document.currentScript:function(){for(var t=document.getElementsByTagName(&quot;script&quot;),e=t.length;e--;)if(t[e].getAttribute(&quot;cf-hash&quot;))return t[e]}();if(t&amp;&amp;t.previousSibling){var e,r,n,i,c=t.previousSibling,a=c.getAttribute(&quot;data-cfemail&quot;);if(a){for(e=&quot;&quot;,r=parseInt(a.substr(0,2),16),n=2;a.length-n;n+=2)i=parseInt(a.substr(n,2),16)^r,e+=String.fromCharCode(i);e=document.createTextNode(e),c.parentNode.replaceChild(e,c)}}}catch(u){}}();/* ]]&gt; */&lt;/script&gt;\nFormat settings, CABAC                   : Yes\nFormat settings, ReFrames                : 4 frames\nCodec ID                                 : avc1\nCodec ID/Info                            : Advanced Video Coding\nDuration                                 : 1h 38mn\nBit rate                                 : 1 063 Kbps\nMaximum bit rate                         : 3 648 Kbps\nWidth                                    : 848 pixels\nHeight                                   : 352 pixels\nDisplay aspect ratio                     : 16:9\nFrame rate mode                          : Constant\nFrame rate                               : 23.976 fps\nColor space                              : YUV\nChroma subsampling                       : 4:2:0\nBit depth                                : 8 bits\nScan type                                : Progressive\nBits/(Pixel*Frame)                       : 0.149\nStream size                              : 752 MiB (94%)\nWriting library                          : x264 core 133 r2334 a3ac64b\n\nAudio\nID                                       : 2\nFormat                                   : AAC\nFormat/Info                              : Advanced Audio Codec\nFormat profile                           : HE-AAC / LC\nCodec ID                                 : 40\nDuration                                 : 1h 38mn\nBit rate mode                            : Variable\nBit rate                                 : 63.9 Kbps\nMaximum bit rate                         : 102 Kbps\nChannel(s)                               : 2 channels\nChannel positions                        : Front: L R\nSampling rate                            : 48.0 KHz / 24.0 KHz\nCompression mode                         : Lossy\nStream size                              : 45.3 MiB (6%)\nEncoder\t\t\t\t\t : Fastbet99\n\nScreenshots &lt;a href=&quot;\nhttp://lookpic.com/O/i2/1930/vcfuQYUb.jpeg&quot; rel=&quot;nofollow&quot; target=&quot;_NEW&quot;&gt;\nhttp://lookpic.com/O/i2/1930/vcfuQYUb.jpeg&lt;/a&gt;","torrent":{"xt":"urn:btih:33ccfbff455ac4f8260694672bf2471b28430829","amp;dn":"Hammer.of.the.Gods.2013.480p.WEBRip.x264-Fastbet99","amp;tr":["udp%3A%2F%2Ftracker.openbittorrent.com%3A80","udp%3A%2F%2Fopen.demonii.com%3A1337","udp%3A%2F%2Ftracker.coppersurfer.tk%3A6969","udp%3A%2F%2Fexodus.desync.com%3A6969"],"infoHash":"33ccfbff455ac4f8260694672bf2471b28430829","infoHashBuffer":{"type":"Buffer","data":[51,204,251,255,69,90,196,248,38,6,148,103,43,242,71,27,40,67,8,41]},"announce":[],"urlList":[]}}